<mxfile host="app.diagrams.net" agent="Mozilla/5.0 (Windows NT 10.0; Win64; x64) AppleWebKit/537.36 (KHTML, like Gecko) Chrome/135.0.0.0 Safari/537.36" version="26.2.14">
  <diagram name="Page-1" id="9361dd3d-8414-5efd-6122-117bd74ce7a7">
    <mxGraphModel grid="1" page="0" gridSize="10" guides="1" tooltips="1" connect="1" arrows="1" fold="1" pageScale="1.5" pageWidth="826" pageHeight="1169" background="none" math="0" shadow="0">
      <root>
        <mxCell id="0" />
        <mxCell id="1" parent="0" />
        <mxCell id="69" value="" style="fillColor=#DEE8FF;strokeColor=none" vertex="1" parent="1">
          <mxGeometry y="-10" width="1050" height="900" as="geometry" />
        </mxCell>
        <mxCell id="2" value="" style="fillColor=#CC4125;strokeColor=#660000" vertex="1" parent="1">
          <mxGeometry x="142.5" y="150" width="10" height="700" as="geometry" />
        </mxCell>
        <mxCell id="4" value="&lt;&lt;view&gt;&gt;&#xa;:ReviewCart" style="shadow=1;fillColor=#A2C4C9;strokeColor=none" vertex="1" parent="1">
          <mxGeometry x="105" y="60" width="105" height="50" as="geometry" />
        </mxCell>
        <mxCell id="6" value="" style="fillColor=#CC4125;strokeColor=#660000" vertex="1" parent="1">
          <mxGeometry x="400" y="180.17" width="10" height="339.83" as="geometry" />
        </mxCell>
        <mxCell id="7" value="&lt;&lt;controller&gt;&gt;&#xa;:PaymentController" style="shadow=1;fillColor=#A2C4C9;strokeColor=none" vertex="1" parent="1">
          <mxGeometry x="340" y="60" width="130" height="50" as="geometry" />
        </mxCell>
        <mxCell id="8" value="" style="edgeStyle=none;endArrow=none;dashed=1" edge="1" parent="1" source="7" target="6">
          <mxGeometry x="272.3350694444445" y="165" width="100" height="100" as="geometry">
            <mxPoint x="347.2588734567901" y="110" as="sourcePoint" />
            <mxPoint x="347.5761959876544" y="165" as="targetPoint" />
          </mxGeometry>
        </mxCell>
        <mxCell id="9" value="customer.getPaymentMethods()" style="edgeStyle=none;verticalLabelPosition=top;verticalAlign=bottom;entryX=0.5;entryY=0;entryDx=0;entryDy=0;exitX=0.85;exitY=0.046;exitDx=0;exitDy=0;exitPerimeter=0;" edge="1" parent="1" target="6" source="2">
          <mxGeometry width="100" height="100" as="geometry">
            <mxPoint x="210" y="179.5" as="sourcePoint" />
            <mxPoint x="340" y="179.5" as="targetPoint" />
            <mxPoint as="offset" />
          </mxGeometry>
        </mxCell>
        <mxCell id="21" value="" style="fillColor=#CC4125;strokeColor=#660000" vertex="1" parent="1">
          <mxGeometry x="590" y="279.7" width="10" height="59.39" as="geometry" />
        </mxCell>
        <mxCell id="22" value="&lt;&lt;model&gt;&gt;&#xa;c: Customer" style="shadow=1;fillColor=#A2C4C9;strokeColor=none" vertex="1" parent="1">
          <mxGeometry x="555" y="120" width="80" height="40" as="geometry" />
        </mxCell>
        <mxCell id="23" value="" style="edgeStyle=none;endArrow=none;dashed=1" edge="1" parent="1" source="22" target="21">
          <mxGeometry x="614.4878472222224" y="174.99999999999997" width="100" height="100" as="geometry">
            <mxPoint x="674.6527777777778" y="110" as="sourcePoint" />
            <mxPoint x="674.6527777777778" y="260" as="targetPoint" />
          </mxGeometry>
        </mxCell>
        <mxCell id="24" value="&lt;&lt;BankAPI&gt;&gt;&#xa;:PaymentValidation" style="shadow=1;fillColor=#A2C4C9;strokeColor=none" vertex="1" parent="1">
          <mxGeometry x="750" y="304.78000000000003" width="105" height="50" as="geometry" />
        </mxCell>
        <mxCell id="25" value="" style="edgeStyle=none;endArrow=none;dashed=1" edge="1" parent="1" source="24" target="26">
          <mxGeometry x="727.3350694444446" y="165" width="100" height="100" as="geometry">
            <mxPoint x="802.2588734567901" y="110" as="sourcePoint" />
            <mxPoint x="802.5761959876544" y="165" as="targetPoint" />
          </mxGeometry>
        </mxCell>
        <mxCell id="26" value="" style="fillColor=#CC4125;strokeColor=#660000" vertex="1" parent="1">
          <mxGeometry x="797.5" y="390" width="10" height="100" as="geometry" />
        </mxCell>
        <mxCell id="33" value="" style="edgeStyle=elbowEdgeStyle;elbow=horizontal;endArrow=none;dashed=1" edge="1" parent="1" source="4" target="2">
          <mxGeometry x="230.00000000000003" y="310" width="100" height="100" as="geometry">
            <mxPoint x="230.00000000000003" y="410" as="sourcePoint" />
            <mxPoint x="330" y="310" as="targetPoint" />
          </mxGeometry>
        </mxCell>
        <mxCell id="34" value="" style="edgeStyle=elbowEdgeStyle;elbow=vertical;verticalLabelPosition=top;verticalAlign=bottom" edge="1" parent="1">
          <mxGeometry width="100" height="100" as="geometry">
            <mxPoint x="410" y="319.5" as="sourcePoint" />
            <mxPoint x="720" y="319.5" as="targetPoint" />
            <Array as="points">
              <mxPoint x="710" y="319.5" />
            </Array>
            <mxPoint as="offset" />
          </mxGeometry>
        </mxCell>
        <mxCell id="GtFCcyPD_cLXZgEZE0AQ-107" value="add element(c.paymentMethod)" style="edgeLabel;html=1;align=center;verticalAlign=middle;resizable=0;points=[];" connectable="0" vertex="1" parent="34">
          <mxGeometry relative="1" as="geometry">
            <mxPoint x="-52" y="1" as="offset" />
          </mxGeometry>
        </mxCell>
        <mxCell id="43" value="             press &quot;make payment&quot; button" style="edgeStyle=elbowEdgeStyle;elbow=vertical;dashed=0;verticalLabelPosition=top;verticalAlign=bottom;align=right;entryX=0;entryY=0.598;entryDx=0;entryDy=0;entryPerimeter=0;" edge="1" parent="1">
          <mxGeometry width="100" height="100" as="geometry">
            <mxPoint x="150" y="365.61" as="sourcePoint" />
            <mxPoint x="400" y="359.99834" as="targetPoint" />
            <Array as="points" />
            <mxPoint x="63" as="offset" />
          </mxGeometry>
        </mxCell>
        <mxCell id="48" value="" style="fillColor=#CC4125;strokeColor=#660000" vertex="1" parent="1">
          <mxGeometry x="542.5" y="580" width="10" height="270" as="geometry" />
        </mxCell>
        <mxCell id="51" value="ShowMessage(&quot;Order Successful)&quot;" style="edgeStyle=elbowEdgeStyle;elbow=vertical;verticalLabelPosition=top;verticalAlign=bottom;endArrow=none;startFill=1;startArrow=block;entryX=0.44;entryY=0.85;entryDx=0;entryDy=0;entryPerimeter=0;exitX=0.621;exitY=0.896;exitDx=0;exitDy=0;exitPerimeter=0;" edge="1" parent="1" source="2">
          <mxGeometry x="212.5" y="469.58333333333337" width="100" height="100" as="geometry">
            <mxPoint x="320" y="781" as="sourcePoint" />
            <mxPoint x="542.5" y="780.7855000000002" as="targetPoint" />
            <Array as="points" />
          </mxGeometry>
        </mxCell>
        <mxCell id="52" value="" style="edgeStyle=none;endArrow=none;dashed=1;exitX=0.5;exitY=1;exitDx=0;exitDy=0;" edge="1" parent="1" source="GtFCcyPD_cLXZgEZE0AQ-145" target="48">
          <mxGeometry x="376.5711805555559" y="339.6971450617284" width="100" height="100" as="geometry">
            <mxPoint x="451.7361111111112" y="284.6971450617284" as="sourcePoint" />
            <mxPoint x="451.7361111111112" y="464.0914351851852" as="targetPoint" />
          </mxGeometry>
        </mxCell>
        <mxCell id="71" value="create an order" style="rounded=1;fontStyle=1;fillColor=#FFD966;strokeColor=none" vertex="1" parent="1">
          <mxGeometry x="50" y="20" width="150" height="30" as="geometry" />
        </mxCell>
        <mxCell id="17" value="" style="fillColor=#CC4125;strokeColor=#660000" vertex="1" parent="1">
          <mxGeometry x="720" y="170" width="10" height="204.39" as="geometry" />
        </mxCell>
        <mxCell id="GtFCcyPD_cLXZgEZE0AQ-97" value="loop" style="shape=umlFrame;whiteSpace=wrap;html=1;pointerEvents=0;width=40;height=20;" vertex="1" parent="1">
          <mxGeometry x="390" y="230" width="250" height="110" as="geometry" />
        </mxCell>
        <mxCell id="GtFCcyPD_cLXZgEZE0AQ-98" value="alt" style="shape=umlFrame;whiteSpace=wrap;html=1;pointerEvents=0;width=30;height=22;" vertex="1" parent="1">
          <mxGeometry x="420" y="267.59" width="190" height="45" as="geometry" />
        </mxCell>
        <mxCell id="GtFCcyPD_cLXZgEZE0AQ-99" value="&lt;font style=&quot;color: rgb(153, 0, 77);&quot;&gt;new &lt;/font&gt;Vector&amp;lt;PaymentMethods&amp;gt;" style="endArrow=open;endSize=12;dashed=1;html=1;rounded=0;entryX=0.22;entryY=0.101;entryDx=0;entryDy=0;entryPerimeter=0;dashPattern=8 8;" edge="1" parent="1" target="17">
          <mxGeometry width="160" relative="1" as="geometry">
            <mxPoint x="410" y="190" as="sourcePoint" />
            <mxPoint x="700" y="190" as="targetPoint" />
          </mxGeometry>
        </mxCell>
        <mxCell id="GtFCcyPD_cLXZgEZE0AQ-103" value="[traverse all payment methods]" style="text;html=1;align=center;verticalAlign=middle;whiteSpace=wrap;rounded=0;" vertex="1" parent="1">
          <mxGeometry x="430" y="230" width="170" height="30" as="geometry" />
        </mxCell>
        <mxCell id="GtFCcyPD_cLXZgEZE0AQ-104" value="[if(c.paymentMethod==&lt;div&gt;paymentMethod)]&lt;/div&gt;" style="text;html=1;align=center;verticalAlign=middle;whiteSpace=wrap;rounded=0;" vertex="1" parent="1">
          <mxGeometry x="450" y="275.39" width="130" height="29.39" as="geometry" />
        </mxCell>
        <mxCell id="GtFCcyPD_cLXZgEZE0AQ-105" value="matchedPaymentMethod:&#xa;Vector&lt;c.paymentMethod&gt;" style="shadow=1;fillColor=#A2C4C9;strokeColor=none" vertex="1" parent="1">
          <mxGeometry x="640" y="50" width="170" height="50" as="geometry" />
        </mxCell>
        <mxCell id="GtFCcyPD_cLXZgEZE0AQ-106" value="" style="edgeStyle=none;endArrow=none;dashed=1;exitX=0.5;exitY=1;exitDx=0;exitDy=0;entryX=0.5;entryY=0;entryDx=0;entryDy=0;" edge="1" parent="1" source="GtFCcyPD_cLXZgEZE0AQ-105" target="17">
          <mxGeometry x="727.3350694444446" y="165" width="100" height="100" as="geometry">
            <mxPoint x="976" y="120" as="sourcePoint" />
            <mxPoint x="705" y="178" as="targetPoint" />
          </mxGeometry>
        </mxCell>
        <mxCell id="GtFCcyPD_cLXZgEZE0AQ-110" value="matchedPaymentMethod()" style="edgeStyle=elbowEdgeStyle;elbow=vertical;dashed=1;verticalLabelPosition=top;verticalAlign=bottom;align=right;dashPattern=8 8;" edge="1" parent="1">
          <mxGeometry width="100" height="100" as="geometry">
            <mxPoint x="400" y="235.99" as="sourcePoint" />
            <mxPoint x="149" y="236" as="targetPoint" />
            <Array as="points" />
            <mxPoint x="85" as="offset" />
          </mxGeometry>
        </mxCell>
        <mxCell id="GtFCcyPD_cLXZgEZE0AQ-122" style="edgeStyle=orthogonalEdgeStyle;rounded=0;orthogonalLoop=1;jettySize=auto;html=1;exitX=1.2;exitY=0.441;exitDx=0;exitDy=0;exitPerimeter=0;entryX=0.75;entryY=0.524;entryDx=0;entryDy=0;entryPerimeter=0;" edge="1" parent="1">
          <mxGeometry relative="1" as="geometry">
            <mxPoint x="157" y="259.32000000000005" as="sourcePoint" />
            <mxPoint x="152.5" y="287.5400000000001" as="targetPoint" />
            <Array as="points">
              <mxPoint x="272.5" y="259.38" />
              <mxPoint x="272.5" y="289.38" />
              <mxPoint x="157.5" y="289.38" />
              <mxPoint x="157.5" y="287.38" />
            </Array>
          </mxGeometry>
        </mxCell>
        <mxCell id="GtFCcyPD_cLXZgEZE0AQ-123" value="showPayments(matchedPaymentMethods)" style="edgeLabel;html=1;align=center;verticalAlign=middle;resizable=0;points=[];" connectable="0" vertex="1" parent="GtFCcyPD_cLXZgEZE0AQ-122">
          <mxGeometry x="-0.155" relative="1" as="geometry">
            <mxPoint x="5" y="10" as="offset" />
          </mxGeometry>
        </mxCell>
        <mxCell id="GtFCcyPD_cLXZgEZE0AQ-124" style="edgeStyle=orthogonalEdgeStyle;rounded=0;orthogonalLoop=1;jettySize=auto;html=1;exitX=1.2;exitY=0.441;exitDx=0;exitDy=0;exitPerimeter=0;entryX=0.75;entryY=0.524;entryDx=0;entryDy=0;entryPerimeter=0;" edge="1" parent="1">
          <mxGeometry relative="1" as="geometry">
            <mxPoint x="157" y="304.81" as="sourcePoint" />
            <mxPoint x="152.5" y="333.03000000000003" as="targetPoint" />
            <Array as="points">
              <mxPoint x="272.5" y="304.86999999999995" />
              <mxPoint x="272.5" y="334.86999999999995" />
              <mxPoint x="157.5" y="334.86999999999995" />
              <mxPoint x="157.5" y="332.86999999999995" />
            </Array>
          </mxGeometry>
        </mxCell>
        <mxCell id="GtFCcyPD_cLXZgEZE0AQ-125" value="press &quot;choose payment p&quot; button." style="edgeLabel;html=1;align=center;verticalAlign=middle;resizable=0;points=[];" connectable="0" vertex="1" parent="GtFCcyPD_cLXZgEZE0AQ-124">
          <mxGeometry x="-0.155" relative="1" as="geometry">
            <mxPoint x="5" y="10" as="offset" />
          </mxGeometry>
        </mxCell>
        <mxCell id="GtFCcyPD_cLXZgEZE0AQ-133" value="checkPayment(p)" style="edgeStyle=elbowEdgeStyle;elbow=vertical;verticalLabelPosition=top;verticalAlign=bottom;endArrow=classic;startFill=0;startArrow=none;endFill=1;entryX=0;entryY=0.25;entryDx=0;entryDy=0;exitX=0.36;exitY=0.676;exitDx=0;exitDy=0;exitPerimeter=0;" edge="1" parent="1" source="6" target="26">
          <mxGeometry x="212.5" y="469.58333333333337" width="100" height="100" as="geometry">
            <mxPoint x="410" y="400" as="sourcePoint" />
            <mxPoint x="690" y="390" as="targetPoint" />
            <Array as="points" />
          </mxGeometry>
        </mxCell>
        <mxCell id="GtFCcyPD_cLXZgEZE0AQ-138" value="alt" style="shape=umlFrame;whiteSpace=wrap;html=1;pointerEvents=0;width=30;height=20;" vertex="1" parent="1">
          <mxGeometry x="310" y="440" width="130" height="50" as="geometry" />
        </mxCell>
        <mxCell id="GtFCcyPD_cLXZgEZE0AQ-139" value="If(1.2) (paymentValid()==true)&lt;div&gt;else(1.1)&lt;/div&gt;" style="text;html=1;align=center;verticalAlign=middle;whiteSpace=wrap;rounded=0;" vertex="1" parent="1">
          <mxGeometry x="310" y="450" width="122.5" height="30" as="geometry" />
        </mxCell>
        <mxCell id="GtFCcyPD_cLXZgEZE0AQ-142" value="" style="edgeStyle=elbowEdgeStyle;elbow=vertical;dashed=1;verticalLabelPosition=bottom;verticalAlign=top;entryX=1;entryY=0.848;entryDx=0;entryDy=0;entryPerimeter=0;" edge="1" parent="1" target="6">
          <mxGeometry x="507.50000000000006" y="664.3418209876543" width="100" height="100" as="geometry">
            <mxPoint x="797.5" y="468.33" as="sourcePoint" />
            <mxPoint x="665" y="468.33" as="targetPoint" />
            <Array as="points" />
          </mxGeometry>
        </mxCell>
        <mxCell id="GtFCcyPD_cLXZgEZE0AQ-143" value="return is valid" style="edgeLabel;html=1;align=center;verticalAlign=middle;resizable=0;points=[];" connectable="0" vertex="1" parent="GtFCcyPD_cLXZgEZE0AQ-142">
          <mxGeometry relative="1" as="geometry">
            <mxPoint x="11" y="-3" as="offset" />
          </mxGeometry>
        </mxCell>
        <mxCell id="GtFCcyPD_cLXZgEZE0AQ-145" value="&lt;&lt;Controller&gt;&gt;&#xa;OrderController" style="shadow=1;fillColor=#A2C4C9;strokeColor=none" vertex="1" parent="1">
          <mxGeometry x="495" y="490" width="105" height="50" as="geometry" />
        </mxCell>
        <mxCell id="GtFCcyPD_cLXZgEZE0AQ-146" value="&lt;&lt;model&gt;&gt;&#xa;Order" style="shadow=1;fillColor=#A2C4C9;strokeColor=none" vertex="1" parent="1">
          <mxGeometry x="632.5" y="510" width="105" height="50" as="geometry" />
        </mxCell>
        <mxCell id="GtFCcyPD_cLXZgEZE0AQ-147" value="&lt;&lt;model&gt;&gt;&#xa;Restarant" style="shadow=1;fillColor=#A2C4C9;strokeColor=none" vertex="1" parent="1">
          <mxGeometry x="770" y="510" width="105" height="50" as="geometry" />
        </mxCell>
        <mxCell id="GtFCcyPD_cLXZgEZE0AQ-148" value="&lt;&lt;model&gt;&gt;&#xa;Customer" style="shadow=1;fillColor=#A2C4C9;strokeColor=none" vertex="1" parent="1">
          <mxGeometry x="900" y="510" width="105" height="50" as="geometry" />
        </mxCell>
        <mxCell id="GtFCcyPD_cLXZgEZE0AQ-154" style="edgeStyle=orthogonalEdgeStyle;rounded=0;orthogonalLoop=1;jettySize=auto;html=1;dashed=1;endArrow=none;startFill=0;" edge="1" parent="1" source="GtFCcyPD_cLXZgEZE0AQ-149" target="GtFCcyPD_cLXZgEZE0AQ-148">
          <mxGeometry relative="1" as="geometry" />
        </mxCell>
        <mxCell id="GtFCcyPD_cLXZgEZE0AQ-149" value="" style="fillColor=#CC4125;strokeColor=#660000" vertex="1" parent="1">
          <mxGeometry x="947.5" y="720" width="10" height="50" as="geometry" />
        </mxCell>
        <mxCell id="GtFCcyPD_cLXZgEZE0AQ-156" style="edgeStyle=orthogonalEdgeStyle;rounded=0;orthogonalLoop=1;jettySize=auto;html=1;endArrow=none;startFill=0;dashed=1;" edge="1" parent="1" source="GtFCcyPD_cLXZgEZE0AQ-150" target="GtFCcyPD_cLXZgEZE0AQ-147">
          <mxGeometry relative="1" as="geometry" />
        </mxCell>
        <mxCell id="GtFCcyPD_cLXZgEZE0AQ-150" value="" style="fillColor=#CC4125;strokeColor=#660000" vertex="1" parent="1">
          <mxGeometry x="817.5" y="680" width="10" height="50" as="geometry" />
        </mxCell>
        <mxCell id="GtFCcyPD_cLXZgEZE0AQ-157" style="edgeStyle=orthogonalEdgeStyle;rounded=0;orthogonalLoop=1;jettySize=auto;html=1;dashed=1;endArrow=none;startFill=0;" edge="1" parent="1" source="GtFCcyPD_cLXZgEZE0AQ-151" target="GtFCcyPD_cLXZgEZE0AQ-146">
          <mxGeometry relative="1" as="geometry" />
        </mxCell>
        <mxCell id="GtFCcyPD_cLXZgEZE0AQ-151" value="" style="fillColor=#CC4125;strokeColor=#660000" vertex="1" parent="1">
          <mxGeometry x="680" y="600" width="10" height="70" as="geometry" />
        </mxCell>
        <mxCell id="GtFCcyPD_cLXZgEZE0AQ-159" value="Customer" style="shape=umlActor;verticalLabelPosition=bottom;verticalAlign=top;html=1;outlineConnect=0;" vertex="1" parent="1">
          <mxGeometry x="60" y="244.77999999999997" width="30" height="60" as="geometry" />
        </mxCell>
        <mxCell id="GtFCcyPD_cLXZgEZE0AQ-160" value="placeOrder(order)" style="edgeStyle=elbowEdgeStyle;elbow=vertical;verticalLabelPosition=top;verticalAlign=bottom;endArrow=classic;startFill=0;startArrow=none;endFill=1;entryX=0.2;entryY=0.169;entryDx=0;entryDy=0;entryPerimeter=0;" edge="1" parent="1" target="GtFCcyPD_cLXZgEZE0AQ-151">
          <mxGeometry x="212.5" y="469.58333333333337" width="100" height="100" as="geometry">
            <mxPoint x="550" y="611" as="sourcePoint" />
            <mxPoint x="650" y="605" as="targetPoint" />
            <Array as="points" />
          </mxGeometry>
        </mxCell>
        <mxCell id="GtFCcyPD_cLXZgEZE0AQ-161" value="addOrder(order)" style="edgeStyle=elbowEdgeStyle;elbow=vertical;verticalLabelPosition=top;verticalAlign=bottom;endArrow=classic;startFill=0;startArrow=none;endFill=1;exitX=0.889;exitY=0.454;exitDx=0;exitDy=0;exitPerimeter=0;entryX=0;entryY=0.75;entryDx=0;entryDy=0;" edge="1" parent="1">
          <mxGeometry x="212.5" y="469.58333333333337" width="100" height="100" as="geometry">
            <mxPoint x="552.4999999999999" y="704.6" as="sourcePoint" />
            <mxPoint x="817.5" y="704.58" as="targetPoint" />
            <Array as="points" />
          </mxGeometry>
        </mxCell>
        <mxCell id="GtFCcyPD_cLXZgEZE0AQ-162" value="addOrder(order)" style="edgeStyle=elbowEdgeStyle;elbow=vertical;verticalLabelPosition=top;verticalAlign=bottom;endArrow=classic;startFill=0;startArrow=none;endFill=1;exitX=0.95;exitY=0.631;exitDx=0;exitDy=0;exitPerimeter=0;" edge="1" parent="1" source="48">
          <mxGeometry x="212.5" y="469.58333333333337" width="100" height="100" as="geometry">
            <mxPoint x="560" y="750" as="sourcePoint" />
            <mxPoint x="940" y="750" as="targetPoint" />
            <Array as="points">
              <mxPoint x="770" y="750" />
            </Array>
          </mxGeometry>
        </mxCell>
        <mxCell id="GtFCcyPD_cLXZgEZE0AQ-163" value="" style="edgeStyle=elbowEdgeStyle;elbow=vertical;dashed=1;verticalLabelPosition=bottom;verticalAlign=top;entryX=1;entryY=0.25;entryDx=0;entryDy=0;" edge="1" parent="1" target="48">
          <mxGeometry x="507.50000000000006" y="664.3418209876543" width="100" height="100" as="geometry">
            <mxPoint x="680" y="640" as="sourcePoint" />
            <mxPoint x="555" y="647.16" as="targetPoint" />
            <Array as="points" />
          </mxGeometry>
        </mxCell>
        <mxCell id="GtFCcyPD_cLXZgEZE0AQ-164" value="return order" style="edgeLabel;html=1;align=center;verticalAlign=middle;resizable=0;points=[];labelBackgroundColor=none;" connectable="0" vertex="1" parent="GtFCcyPD_cLXZgEZE0AQ-163">
          <mxGeometry relative="1" as="geometry">
            <mxPoint x="4" y="-8" as="offset" />
          </mxGeometry>
        </mxCell>
        <mxCell id="GtFCcyPD_cLXZgEZE0AQ-169" value="1.2ShowMessage(&quot;Order Successful)&quot;" style="edgeStyle=elbowEdgeStyle;elbow=vertical;verticalLabelPosition=top;verticalAlign=bottom;endArrow=none;startFill=1;startArrow=block;exitX=0.621;exitY=0.896;exitDx=0;exitDy=0;exitPerimeter=0;" edge="1" parent="1">
          <mxGeometry x="212.5" y="469.58333333333337" width="100" height="100" as="geometry">
            <mxPoint x="152.5" y="506.21" as="sourcePoint" />
            <mxPoint x="400" y="510" as="targetPoint" />
            <Array as="points">
              <mxPoint x="280" y="510" />
            </Array>
          </mxGeometry>
        </mxCell>
        <mxCell id="GtFCcyPD_cLXZgEZE0AQ-170" value="placeOrder(order)" style="edgeStyle=elbowEdgeStyle;elbow=vertical;verticalLabelPosition=top;verticalAlign=bottom;endArrow=classic;startFill=0;startArrow=none;exitX=0.621;exitY=0.896;exitDx=0;exitDy=0;exitPerimeter=0;endFill=1;entryX=0.25;entryY=0.03;entryDx=0;entryDy=0;entryPerimeter=0;" edge="1" parent="1" target="48">
          <mxGeometry x="212.5" y="469.58333333333337" width="100" height="100" as="geometry">
            <mxPoint x="152.5" y="580" as="sourcePoint" />
            <mxPoint x="400" y="583.79" as="targetPoint" />
            <Array as="points">
              <mxPoint x="280" y="583.79" />
            </Array>
          </mxGeometry>
        </mxCell>
        <mxCell id="GtFCcyPD_cLXZgEZE0AQ-171" value="1.1ShowMessage&#xa;(&quot;Order Unsuccessful)&quot;" style="edgeStyle=elbowEdgeStyle;elbow=vertical;verticalLabelPosition=top;verticalAlign=bottom;endArrow=none;startFill=1;startArrow=block;exitX=0.621;exitY=0.896;exitDx=0;exitDy=0;exitPerimeter=0;" edge="1" parent="1">
          <mxGeometry x="212.5" y="469.58333333333337" width="100" height="100" as="geometry">
            <mxPoint x="155" y="450.00000000000006" as="sourcePoint" />
            <mxPoint x="310" y="454" as="targetPoint" />
            <Array as="points">
              <mxPoint x="282.5" y="453.79" />
            </Array>
          </mxGeometry>
        </mxCell>
        <mxCell id="GtFCcyPD_cLXZgEZE0AQ-173" value="" style="endArrow=classic;html=1;rounded=0;exitX=1;exitY=0.3333333333333333;exitDx=0;exitDy=0;exitPerimeter=0;" edge="1" parent="1">
          <mxGeometry width="50" height="50" relative="1" as="geometry">
            <mxPoint x="63" y="217.5" as="sourcePoint" />
            <mxPoint x="142.50000000000023" y="217.5" as="targetPoint" />
            <Array as="points">
              <mxPoint x="123" y="217.5" />
            </Array>
          </mxGeometry>
        </mxCell>
        <mxCell id="GtFCcyPD_cLXZgEZE0AQ-174" value="&lt;font size=&quot;1&quot;&gt;Tap &quot;Sipariş Ver&quot;&lt;/font&gt;" style="edgeLabel;html=1;align=center;verticalAlign=middle;resizable=0;points=[];" connectable="0" vertex="1" parent="GtFCcyPD_cLXZgEZE0AQ-173">
          <mxGeometry x="-0.1331" relative="1" as="geometry">
            <mxPoint x="-4" y="10" as="offset" />
          </mxGeometry>
        </mxCell>
        <mxCell id="GtFCcyPD_cLXZgEZE0AQ-175" value="Restaurant ,&lt;br&gt;&lt;div&gt;&lt;span style=&quot;background-color: transparent; color: light-dark(rgb(0, 0, 0), rgb(255, 255, 255));&quot;&gt;List&amp;lt;Menu&amp;gt; ,&lt;/span&gt;&lt;/div&gt;&lt;div&gt;&lt;span style=&quot;background-color: transparent; color: light-dark(rgb(0, 0, 0), rgb(255, 255, 255));&quot;&gt;List&amp;lt;OrderItem&amp;gt;&lt;/span&gt;&amp;nbsp;&lt;/div&gt;" style="shape=note;size=9;whiteSpace=wrap;html=1;" vertex="1" parent="1">
          <mxGeometry x="20" y="120" width="103" height="57.5" as="geometry" />
        </mxCell>
        <mxCell id="GtFCcyPD_cLXZgEZE0AQ-176" value="" style="endArrow=none;dashed=1;html=1;dashPattern=1 3;strokeWidth=2;rounded=0;exitX=0.796;exitY=1.003;exitDx=0;exitDy=0;exitPerimeter=0;" edge="1" parent="1" source="GtFCcyPD_cLXZgEZE0AQ-175">
          <mxGeometry width="50" height="50" relative="1" as="geometry">
            <mxPoint x="373" y="367.5" as="sourcePoint" />
            <mxPoint x="103" y="217.5" as="targetPoint" />
          </mxGeometry>
        </mxCell>
      </root>
    </mxGraphModel>
  </diagram>
</mxfile>
